<mxfile host="app.diagrams.net" modified="2023-09-21T19:21:58.788Z" agent="Mozilla/5.0 (X11; Linux x86_64; rv:109.0) Gecko/20100101 Firefox/114.0" etag="aKmjsvZbBJrNdMS17Y-L" version="21.8.0" type="github">
  <diagram name="PÃ¡gina-1" id="JrLKalugu6dd-Evh-oHa">
    <mxGraphModel dx="1434" dy="795" grid="1" gridSize="10" guides="1" tooltips="1" connect="1" arrows="1" fold="1" page="1" pageScale="1" pageWidth="827" pageHeight="1169" math="0" shadow="0">
      <root>
        <mxCell id="0" />
        <mxCell id="1" parent="0" />
        <mxCell id="QYk_PWpJ37yog6MR560c-2" value="proveedores" style="rounded=0;whiteSpace=wrap;html=1;fillColor=#dae8fc;strokeColor=#6c8ebf;" vertex="1" parent="1">
          <mxGeometry x="160" y="160" width="130" height="60" as="geometry" />
        </mxCell>
        <mxCell id="QYk_PWpJ37yog6MR560c-3" value="clientes" style="rounded=0;whiteSpace=wrap;html=1;fillColor=#dae8fc;strokeColor=#6c8ebf;" vertex="1" parent="1">
          <mxGeometry x="490" y="400" width="120" height="60" as="geometry" />
        </mxCell>
        <mxCell id="QYk_PWpJ37yog6MR560c-4" value="productos" style="rounded=0;whiteSpace=wrap;html=1;fillColor=#dae8fc;strokeColor=#6c8ebf;" vertex="1" parent="1">
          <mxGeometry x="490" y="160" width="120" height="60" as="geometry" />
        </mxCell>
        <mxCell id="QYk_PWpJ37yog6MR560c-5" value="distribuyen" style="rhombus;whiteSpace=wrap;html=1;fillColor=#d5e8d4;strokeColor=#82b366;" vertex="1" parent="1">
          <mxGeometry x="350" y="155" width="80" height="70" as="geometry" />
        </mxCell>
        <mxCell id="QYk_PWpJ37yog6MR560c-14" style="edgeStyle=orthogonalEdgeStyle;rounded=0;orthogonalLoop=1;jettySize=auto;html=1;exitX=0.5;exitY=0;exitDx=0;exitDy=0;entryX=0.5;entryY=1;entryDx=0;entryDy=0;" edge="1" parent="1" source="QYk_PWpJ37yog6MR560c-6" target="QYk_PWpJ37yog6MR560c-4">
          <mxGeometry relative="1" as="geometry" />
        </mxCell>
        <mxCell id="QYk_PWpJ37yog6MR560c-39" style="edgeStyle=orthogonalEdgeStyle;rounded=0;orthogonalLoop=1;jettySize=auto;html=1;exitX=1;exitY=0;exitDx=0;exitDy=0;" edge="1" parent="1" source="QYk_PWpJ37yog6MR560c-6" target="QYk_PWpJ37yog6MR560c-20">
          <mxGeometry relative="1" as="geometry" />
        </mxCell>
        <mxCell id="QYk_PWpJ37yog6MR560c-6" value="compra" style="rhombus;whiteSpace=wrap;html=1;fillColor=#d5e8d4;strokeColor=#82b366;" vertex="1" parent="1">
          <mxGeometry x="510" y="270" width="80" height="70" as="geometry" />
        </mxCell>
        <mxCell id="QYk_PWpJ37yog6MR560c-10" value="" style="endArrow=classic;startArrow=classic;html=1;rounded=0;exitX=1;exitY=0.5;exitDx=0;exitDy=0;" edge="1" parent="1" source="QYk_PWpJ37yog6MR560c-2" target="QYk_PWpJ37yog6MR560c-5">
          <mxGeometry width="50" height="50" relative="1" as="geometry">
            <mxPoint x="300" y="215" as="sourcePoint" />
            <mxPoint x="350" y="165" as="targetPoint" />
          </mxGeometry>
        </mxCell>
        <mxCell id="QYk_PWpJ37yog6MR560c-11" value="" style="endArrow=classic;startArrow=classic;html=1;rounded=0;exitX=1;exitY=0.5;exitDx=0;exitDy=0;" edge="1" parent="1">
          <mxGeometry width="50" height="50" relative="1" as="geometry">
            <mxPoint x="430" y="189.5" as="sourcePoint" />
            <mxPoint x="490" y="189.5" as="targetPoint" />
            <Array as="points">
              <mxPoint x="470" y="189.5" />
            </Array>
          </mxGeometry>
        </mxCell>
        <mxCell id="QYk_PWpJ37yog6MR560c-12" value="" style="endArrow=classic;html=1;rounded=0;" edge="1" parent="1">
          <mxGeometry width="50" height="50" relative="1" as="geometry">
            <mxPoint x="549.5" y="390.03" as="sourcePoint" />
            <mxPoint x="550" y="340" as="targetPoint" />
            <Array as="points">
              <mxPoint x="550" y="400" />
            </Array>
          </mxGeometry>
        </mxCell>
        <mxCell id="QYk_PWpJ37yog6MR560c-18" value="id" style="ellipse;whiteSpace=wrap;html=1;fillColor=#ffe6cc;strokeColor=#d79b00;" vertex="1" parent="1">
          <mxGeometry x="630" y="310" width="80" height="50" as="geometry" />
        </mxCell>
        <mxCell id="QYk_PWpJ37yog6MR560c-20" value="nombre" style="ellipse;whiteSpace=wrap;html=1;fillColor=#ffe6cc;strokeColor=#d79b00;" vertex="1" parent="1">
          <mxGeometry x="630" y="240" width="80" height="50" as="geometry" />
        </mxCell>
        <mxCell id="QYk_PWpJ37yog6MR560c-28" value="1:n" style="text;html=1;strokeColor=none;fillColor=none;align=center;verticalAlign=middle;whiteSpace=wrap;rounded=0;" vertex="1" parent="1">
          <mxGeometry x="490" y="360" width="60" height="30" as="geometry" />
        </mxCell>
        <mxCell id="QYk_PWpJ37yog6MR560c-32" value="1:1" style="text;html=1;strokeColor=none;fillColor=none;align=center;verticalAlign=middle;whiteSpace=wrap;rounded=0;" vertex="1" parent="1">
          <mxGeometry x="290" y="140" width="60" height="30" as="geometry" />
        </mxCell>
        <mxCell id="QYk_PWpJ37yog6MR560c-33" value="1:n" style="text;html=1;strokeColor=none;fillColor=none;align=center;verticalAlign=middle;whiteSpace=wrap;rounded=0;" vertex="1" parent="1">
          <mxGeometry x="430" y="140" width="60" height="30" as="geometry" />
        </mxCell>
        <mxCell id="QYk_PWpJ37yog6MR560c-34" value="&lt;b&gt;1:n&lt;/b&gt;" style="text;html=1;strokeColor=none;fillColor=none;align=center;verticalAlign=middle;whiteSpace=wrap;rounded=0;" vertex="1" parent="1">
          <mxGeometry x="360" y="120" width="60" height="30" as="geometry" />
        </mxCell>
        <mxCell id="QYk_PWpJ37yog6MR560c-36" value="0:1" style="text;html=1;strokeColor=none;fillColor=none;align=center;verticalAlign=middle;whiteSpace=wrap;rounded=0;" vertex="1" parent="1">
          <mxGeometry x="490" y="225" width="60" height="30" as="geometry" />
        </mxCell>
        <mxCell id="QYk_PWpJ37yog6MR560c-37" value="&lt;b&gt;1:n&lt;/b&gt;" style="text;html=1;strokeColor=none;fillColor=none;align=center;verticalAlign=middle;whiteSpace=wrap;rounded=0;" vertex="1" parent="1">
          <mxGeometry x="470" y="290" width="60" height="30" as="geometry" />
        </mxCell>
        <mxCell id="QYk_PWpJ37yog6MR560c-38" style="edgeStyle=orthogonalEdgeStyle;rounded=0;orthogonalLoop=1;jettySize=auto;html=1;exitX=1;exitY=1;exitDx=0;exitDy=0;entryX=0.038;entryY=0.68;entryDx=0;entryDy=0;entryPerimeter=0;" edge="1" parent="1" source="QYk_PWpJ37yog6MR560c-6" target="QYk_PWpJ37yog6MR560c-18">
          <mxGeometry relative="1" as="geometry" />
        </mxCell>
      </root>
    </mxGraphModel>
  </diagram>
</mxfile>
